<?xml version="1.0" standalone="no"?>
<!DOCTYPE svg PUBLIC "-//W3C//DTD SVG 1.1//EN" "http://www.w3.org/Graphics/SVG/1.1/DTD/svg11.dtd">
<svg t="1642583814623" class="icon" viewBox="0 0 1024 1024" version="1.1" xmlns="http://www.w3.org/2000/svg" p-id="5842" xmlns:xlink="http://www.w3.org/1999/xlink" width="16" height="16">
<defs><style type="text/css"></style></defs>
<path d="M917.1 59.5H712.4c-19.3 0-35 15.7-35 35s15.7 35 35 35h169.8v169.8c0 19.3 15.7 35 35 35s35-15.7 35-35V94.5c-0.1-19.3-15.7-35-35.1-35zM106.9 334.3c19.3 0 35-15.7 35-35V129.5h169.8c19.3 0 35-15.7 35-35s-15.7-35-35-35H106.9c-19.3 0-35 15.7-35 35v204.8c0 19.3 15.6 35 35 35zM311.6 894.5H141.9V724.7c0-19.3-15.7-35-35-35s-35 15.7-35 35v204.8c0 19.3 15.7 35 35 35h204.8c19.3 0 35-15.7 35-35s-15.7-35-35.1-35zM917.1 689.7c-19.3 0-35 15.7-35 35v169.8H712.4c-19.3 0-35 15.7-35 35s15.7 35 35 35h204.8c19.3 0 35-15.7 35-35V724.7c-0.1-19.3-15.7-35-35.1-35zM769.1 794.7c9.2 0 18.4-3.6 25.3-10.8 13.3-14 12.8-36.1-1.2-49.5L705 650.2c26.3-37.5 43-82.4 46-131.5 9-141.6-98.7-263.7-240.3-272.6-5.5-0.3-10.9-0.5-16.3-0.5-134.6 0-247.7 104.8-256.3 241-8.9 141.7 98.8 263.7 240.4 272.6 5.5 0.3 10.9 0.5 16.3 0.5 61.3 0 118.1-21.7 162.6-58.2l87.5 83.5c6.8 6.5 15.5 9.7 24.2 9.7z m-87.9-280.3c-3 47.8-23.9 92.1-58.8 124.8-34.8 32.6-80.1 50.5-127.6 50.5-4 0-8-0.1-12-0.4-49.9-3.1-95.5-25.5-128.6-63-33-37.5-49.5-85.6-46.4-135.4 3-47.8 23.9-92.1 58.8-124.8 34.8-32.6 80.1-50.5 127.6-50.5 4 0 8 0.1 11.9 0.4 49.9 3.1 95.5 25.5 128.6 63 33.2 37.4 49.7 85.5 46.5 135.4z" p-id="5843" fill="#515151"></path>
</svg>